<?xml version="1.0" encoding="UTF-8"?>
<svg width="12px" height="12px" viewBox="0 0 12 12" version="1.1" xmlns="http://www.w3.org/2000/svg" xmlns:xlink="http://www.w3.org/1999/xlink">
    <title>85504EF8-4DE8-4B11-9353-37926AF77C31</title>
    <g id="Final" stroke="none" stroke-width="1" fill="none" fill-rule="evenodd">
        <g id="Explorer-Assets-2" transform="translate(-346.000000, -536.000000)" fill="#FFFFFF" fill-rule="nonzero">
            <g id="Group" transform="translate(346.000000, 536.000000)">
                <path d="M11.8650337,0.13496552 C11.6850729,-0.0450000265 11.3933175,-0.0449769865 11.2133659,0.13496552 L6,5.34834461 L0.786635509,0.13498856 C0.606677028,-0.0449769865 0.314928495,-0.0449769865 0.134967709,0.13498856 C-0.0449907724,0.314931067 -0.0449884684,0.606686759 0.134970013,0.786652306 L5.34832117,6 L0.134983837,11.2133391 C-0.0449677324,11.3933046 -0.0449746444,11.6850603 0.134981533,11.8650258 C0.314942319,12.0449683 0.606700068,12.0449683 0.786651637,11.8650258 L6,6.65166979 L11.2133475,11.8650258 C11.3933083,12.0449914 11.6850591,12.0449914 11.8650176,11.8650258 C12.0449784,11.6850833 12.0449761,11.3933276 11.8650176,11.2133621 L6.65166138,6 L11.8650337,0.786629266 C12.0449853,0.606686759 12.0449922,0.314931067 11.8650337,0.13496552 L11.8650337,0.13496552 Z" id="Path"></path>
            </g>
        </g>
    </g>
</svg>